<svg width="72" height="72" viewBox="0 0 72 72" fill="none" xmlns="http://www.w3.org/2000/svg">
<path d="M16.6114 64.9626C19.7643 65.2118 22.9173 64.2166 25.343 61.9795L40.7852 48.0553C40.9467 47.9724 41.0274 47.8061 41.1895 47.7234C39.8956 48.0553 38.5214 48.1382 37.2275 48.0553H37.1469C35.6916 47.889 34.2362 47.5577 32.862 46.9774L21.462 57.2553C20.1685 58.4152 18.6325 58.9128 17.0963 58.8299H17.0156C15.4794 58.6637 14.0241 58.0005 12.8923 56.675C11.8411 55.3486 11.3562 53.7739 11.4369 52.1164C11.5178 50.5416 12.2453 48.9669 13.458 47.889L26.313 36.2856L28.9001 33.9649L28.981 33.882L29.1429 33.7164H29.2237L29.3852 33.5508L29.547 33.4679L29.6279 33.3852C29.7086 33.3024 29.7894 33.3024 29.8705 33.2188L30.0321 33.1361L30.1128 33.0532H30.194L30.3555 32.9704L30.5982 32.8876L30.7597 32.8048H30.8406C31.0024 32.7221 31.0831 32.6392 31.2448 32.6392H31.3258L31.5681 32.5563L31.73 32.4736C31.8915 32.4736 32.1342 32.4736 32.2957 32.39H33.3469C34.8831 32.5563 36.3385 33.2188 37.4703 34.5452C38.4402 35.7058 38.9256 37.0315 38.9256 38.4405C39.734 38.275 40.4616 37.9438 41.0274 37.3633L44.2616 34.4623C43.7766 33.0532 43.0489 31.6441 41.9978 30.484C40.5425 28.7438 38.7637 27.583 36.7427 26.8371C36.6618 26.8371 36.5 26.7542 36.3385 26.7542L36.2576 26.6716H36.1764L35.7722 26.5886C35.6916 26.506 35.53 26.506 35.4488 26.506L35.368 26.4231H34.9638L34.8831 26.3402H34.5595L34.398 26.2568H33.5084L33.4277 26.174H32.3766L32.2957 26.2568H31.8109C31.5681 26.2568 31.3258 26.3402 31.0024 26.3402L30.8406 26.4231C30.5982 26.4231 30.3555 26.506 30.194 26.506H30.1128L29.9513 26.5886H29.7894L29.7086 26.6716H29.547L29.3852 26.7542L29.1429 26.8371H29.062L28.8195 26.9198L28.7386 27.0027H28.5768L28.3344 27.0863L28.2532 27.169L28.0111 27.2518C26.9599 27.7487 25.9087 28.4117 25.0195 29.2406L9.57729 43.1647C7.07095 45.4027 5.69664 48.4693 5.45409 51.7015C5.29243 54.9339 6.18171 58.1667 8.36468 60.7359C10.5478 63.3051 13.5388 64.797 16.6114 64.9626Z" fill="white"/>
<path d="M34.1091 25.0282C35.6803 25.1109 37.1691 25.4429 38.5751 26.0233L50.2363 15.7453C51.5595 14.5854 53.1308 14.0878 54.7026 14.2534C56.2739 14.3369 57.8453 15.0821 58.92 16.3257C60.078 17.652 60.5745 19.3095 60.4918 20.8844C60.3263 22.4591 59.6645 24.0337 58.3413 25.1945L45.274 36.7146L42.5448 39.1187H42.4623L42.2966 39.2843V39.3672H42.214L42.1313 39.4499L41.9661 39.6156H41.883C41.7178 39.6983 41.6353 39.7812 41.5522 39.7812L41.387 39.8639L41.3044 39.9474L41.1388 40.0304L40.8908 40.1959H40.7253L40.6426 40.2786C40.4773 40.2786 40.3118 40.3615 40.2291 40.3615L40.1465 40.4444H39.8983L39.6504 40.5271C39.4848 40.5271 39.3195 40.6099 39.154 40.6099H38.0787C36.5073 40.5271 34.936 39.7812 33.8611 38.4555C32.8685 37.3776 32.3723 35.9685 32.2894 34.5601C31.5454 34.7257 30.8011 35.0569 30.222 35.6374L26.9141 38.5384C27.4101 39.9474 28.1546 41.3558 29.2296 42.5994C30.7181 44.2569 32.5376 45.5004 34.5225 46.1636H34.6051L34.8533 46.2465L34.936 46.3292H35.1016L35.2668 46.412H35.3495L35.5151 46.4949H35.763L35.9286 46.5776H36.0113L36.3421 46.6605H36.7555V46.7432H37.1691C37.3346 46.7432 37.5 46.7432 37.6653 46.8261H39.154L39.5675 46.7432H40.1465L40.3945 46.6605H40.5601L40.7253 46.5776H40.8908L41.2218 46.4949H41.4696L41.6353 46.412L41.9661 46.3292L42.214 46.2465H42.2966L42.3796 46.1636H42.4623C42.5448 46.1636 42.71 46.0809 42.7931 46.0809C42.9583 45.9973 43.1241 45.9144 43.2893 45.8318H43.3718L43.5375 45.7488H43.6201C44.6123 45.2514 45.6876 44.5889 46.5976 43.7602L62.3937 29.836C64.9576 27.598 66.3638 24.5313 66.529 21.2984C66.7773 18.1489 65.7846 14.8338 63.5515 12.2647C61.4016 9.69552 58.3413 8.2864 55.1986 8.03724H55.116C51.973 7.78882 48.7476 8.78331 46.1837 11.0212L30.3876 24.9454C30.3045 25.1109 30.1393 25.1945 30.0567 25.2774C31.3798 25.0282 32.7033 24.8625 34.1091 25.0282Z" fill="white"/>
</svg>
